# xmcd
#
# Track frame offsets:
#	187
#	13987
#	26735
#	37972
#	49297
#	61977
#	72815
#
# Disc length: 1126 seconds
#
# Revision: 1
# Processed by: cddbd v1.5.2PL0 Copyright (c) Steve Scherf et al.
# Submitted via: EZCDAudioConverter 6.0.5.1
#
DISCID=5c046407
DTITLE=Jim Ed Brown and Helen Cornelius - Greatest Hits
DYEAR=1992
DGENRE=Country
TTITLE0=I Don't Want To Have To Marry You
TTITLE1=Morning Comes Too Early
TTITLE2=Saying Hello, Saying I Love You, Saying Goodbye
TTITLE3=Fools
TTITLE4=Lying In Love With You
TTITLE5=Don't Bother To Knock
TTITLE6=If The World Ran Out Of Love Tonight
EXTD=
EXTT0=
EXTT1=
EXTT2=
EXTT3=
EXTT4=
EXTT5=
EXTT6=
PLAYORDER=
